<svg xmlns="http://www.w3.org/2000/svg" viewBox="0 0 430 72" role="img" aria-labelledby="title desc">
  <title id="title">Motto Stella — Bantayog ni José Rizal</title>
  <desc id="desc">Isang ginintuang bituin at estilong obelisk na hango sa Rizal Monument.</desc>
  <g transform="translate(3 4)">
    <circle cx="32" cy="32" r="29" fill="#10263a"/>
    <g fill="#c89b3c">
      <path d="M32 6l3 15 13-8-9 12 15 1-15 5 10 11-14-7-2 16-3-16-14 8 10-12-15-4 15-2-9-12 13 8z" opacity=".48"/>
      <path d="M27 18h10l3 27H24z"/>
      <path d="M20 45h24v7H20z"/>
      <circle cx="23" cy="15" r="2"/><circle cx="32" cy="12" r="2"/><circle cx="41" cy="15" r="2"/>
    </g>
  </g>
  <g fill="#10263a">
    <text x="78" y="29" font-family="Georgia, Times New Roman, serif" font-size="23" font-weight="700" letter-spacing="1.2">MOTTO STELLA</text>
    <text x="79" y="51" font-family="Arial, Helvetica, sans-serif" font-size="12" letter-spacing="2.1">BANTAYOG NI JOSÉ RIZAL · MAYNILA</text>
  </g>
</svg>
